<svg width="18" height="18" viewBox="0 0 18 18" fill="none" xmlns="http://www.w3.org/2000/svg">
<path d="M3.87935 3.77451C3.65479 3.20107 3.66361 2.54578 3.76372 1.94575C4.44512 2.1549 5.10263 2.47517 5.66966 2.90852C5.92024 3.10002 6.25042 3.1628 6.55814 3.06956C7.30392 2.84358 8.12486 2.71746 8.98994 2.71746C9.85421 2.71746 10.6743 2.84333 11.4196 3.06891C11.7272 3.16202 12.0571 3.09926 12.3077 2.90791C12.8745 2.47488 13.5317 2.1548 14.2128 1.94575C14.3128 2.54521 14.3217 3.1997 14.0979 3.77276C13.9631 4.11794 14.0307 4.51541 14.2847 4.79733C14.9356 5.51945 15.2827 6.34993 15.2827 7.21234C15.2827 9.11285 13.5123 10.9762 10.6676 11.5437C9.95526 11.6858 9.67729 12.5814 10.2225 13.0951C10.5718 13.4241 10.7879 13.8881 10.7879 14.4041V17.101C10.7879 17.5974 11.1904 18 11.6869 18C12.1834 18 12.5858 17.5974 12.5858 17.101V14.4041C12.5858 13.8919 12.4784 13.4044 12.2853 12.9632C14.9979 12.0216 17.0807 9.90242 17.0807 7.21234C17.0807 6.00089 16.6452 4.88826 15.9235 3.95621C16.1121 3.2194 16.0954 2.47627 16.0237 1.90615C15.9595 1.39594 15.8702 0.726758 15.5104 0.328019C14.9758 -0.264134 14.09 0.0842898 13.4607 0.299585C12.9048 0.488611 12.2171 0.789893 11.5508 1.23902C10.744 1.03124 9.88262 0.919516 8.98994 0.919516C8.09636 0.919516 7.23407 1.03146 6.4266 1.23964C5.76029 0.790288 5.07237 0.488863 4.51624 0.299746C3.88704 0.0844244 3.00058 -0.264161 2.46612 0.328127C2.09971 0.734166 2.0225 1.3502 1.95699 1.87293L1.95266 1.90745C1.88098 2.47814 1.86445 3.22208 2.05386 3.95946C1.3336 4.89086 0.899191 6.00232 0.899191 7.21234C0.899191 9.90242 2.98202 12.0216 5.69461 12.9632C5.50367 13.3992 5.39655 13.8806 5.3941 14.3863L5.24329 14.4164C4.59887 14.5052 4.18607 14.4261 3.90508 14.3069C3.22181 14.0171 2.86996 13.288 2.4393 12.7308C2.17172 12.3845 1.78201 11.9528 1.18349 11.7533C0.712484 11.5964 0.203378 11.8509 0.0463728 12.3219C-0.110624 12.7929 0.143929 13.302 0.614936 13.459C1.11718 13.6264 1.46384 14.4857 1.78181 14.8673C2.11702 15.2696 2.56302 15.6906 3.2029 15.9621C3.81556 16.222 4.53526 16.3151 5.39405 16.2099V17.101C5.39405 17.5974 5.79654 18 6.29302 18C6.78951 18 7.192 17.5974 7.192 17.101V14.4041C7.192 13.8881 7.40811 13.4241 7.75736 13.0951C8.30267 12.5814 8.02444 11.6858 7.31228 11.5437C4.46759 10.9762 2.69714 9.11285 2.69714 7.21234C2.69714 6.35076 3.04368 5.52109 3.69323 4.79948C3.94723 4.51731 4.0145 4.11965 3.87935 3.77451Z" fill="white"/>
</svg>
