<svg width="18" height="18" viewBox="0 0 18 18" fill="none" xmlns="http://www.w3.org/2000/svg">
<path d="M15 0C16.6569 0 18 1.34315 18 3V15C18 16.6569 16.6569 18 15 18H3C1.34315 18 0 16.6569 0 15V3C0 1.34315 1.34315 0 3 0H15ZM15 2H3C2.44772 2 2 2.44772 2 3V15C2 15.5523 2.44772 16 3 16H15C15.5523 16 16 15.5523 16 15V3C16 2.44772 15.5523 2 15 2ZM5 7C5.51283 7 5.93551 7.38603 5.99327 7.88338L6 8V13C6 13.5523 5.55228 14 5 14C4.48717 14 4.06449 13.614 4.00673 13.1166L4 13V8C4 7.4477 4.44772 7 5 7ZM8 6C8.4913 6 8.8998 6.35427 8.9841 6.82128C9.1863 6.70435 9.395 6.59892 9.6067 6.50837C10.2739 6.22295 11.2732 6.06594 12.1749 6.34949C12.6476 6.4981 13.1232 6.77907 13.4758 7.2556C13.7905 7.68102 13.9599 8.19841 13.9937 8.77926L14 9V13C14 13.5522 13.5523 14 13 14C12.4872 14 12.0645 13.6139 12.0067 13.1166L12 13V9C12 8.6707 11.9201 8.5157 11.868 8.4451C11.8143 8.3726 11.7274 8.3053 11.5751 8.2574C11.2268 8.1479 10.7261 8.2048 10.3933 8.3472C9.89227 8.56149 9.43474 8.89713 9.12392 9.20834L9 9.3398V13C9 13.5523 8.5523 14 8 14C7.48715 14 7.06449 13.614 7.00673 13.1166L7 13V7C7 6.44772 7.4477 6 8 6ZM5 4C5.55228 4 6 4.44772 6 5C6 5.55228 5.55228 6 5 6C4.44772 6 4 5.55228 4 5C4 4.44772 4.44772 4 5 4Z" fill="white"/>
</svg>
