<svg width="18" height="18" viewBox="0 0 18 18" fill="none" xmlns="http://www.w3.org/2000/svg">
<path d="M15.3 2.61905C14.4748 1.78558 13.492 1.12475 12.4088 0.675098C11.3257 0.225444 10.1638 -0.00403209 8.99097 5.36125e-05C4.07699 5.36125e-05 0.0719999 4.00504 0.0719999 8.91903C0.0719999 10.494 0.485999 12.024 1.26 13.374L0 18L4.72499 16.758C6.02998 17.469 7.49698 17.847 8.99097 17.847C13.905 17.847 17.9099 13.842 17.9099 8.92803C17.9099 6.54303 16.983 4.30204 15.3 2.61905ZM8.99097 16.335C7.65898 16.335 6.35398 15.975 5.21098 15.3L4.94099 15.138L2.13299 15.876L2.87999 13.14L2.69999 12.861C1.95997 11.6793 1.56702 10.3133 1.566 8.91903C1.566 4.83304 4.89599 1.50305 8.98197 1.50305C10.962 1.50305 12.825 2.27705 14.22 3.68104C14.9107 4.36861 15.4581 5.18643 15.8304 6.08712C16.2027 6.9878 16.3926 7.95343 16.389 8.92803C16.407 13.014 13.077 16.335 8.99097 16.335ZM13.059 10.791C12.834 10.683 11.736 10.143 11.538 10.062C11.331 9.99002 11.187 9.95402 11.034 10.17C10.881 10.395 10.458 10.899 10.332 11.043C10.206 11.196 10.071 11.214 9.84597 11.097C9.62097 10.989 8.90097 10.746 8.05498 9.99002C7.38898 9.39603 6.94798 8.66703 6.81298 8.44203C6.68698 8.21703 6.79498 8.10003 6.91198 7.98303C7.01098 7.88403 7.13698 7.72203 7.24498 7.59603C7.35298 7.47003 7.39798 7.37103 7.46998 7.22703C7.54198 7.07403 7.50598 6.94803 7.45198 6.84003C7.39798 6.73203 6.94798 5.63404 6.76798 5.18404C6.58798 4.75204 6.39898 4.80604 6.26398 4.79704H5.83198C5.67898 4.79704 5.44498 4.85104 5.23798 5.07604C5.03998 5.30104 4.46399 5.84104 4.46399 6.93903C4.46399 8.03703 5.26498 9.09903 5.37298 9.24303C5.48098 9.39603 6.94798 11.646 9.17997 12.609C9.71097 12.843 10.125 12.978 10.449 13.077C10.98 13.248 11.466 13.221 11.853 13.167C12.285 13.104 13.176 12.627 13.356 12.105C13.545 11.583 13.545 11.142 13.482 11.043C13.419 10.944 13.284 10.899 13.059 10.791Z" fill="white"/>
</svg>
